<svg width="1122" height="678" viewBox="0 0 1122 678" fill="none" xmlns="http://www.w3.org/2000/svg">
<path d="M100.152 669.032H976.16C976.16 669.032 1081.53 683.983 1083 656.532C1084.47 629.08 1125 554.532 1060.35 421.128C995.705 287.724 939.5 243.196 864.593 243.196C789.687 243.196 1013.76 193.479 952.917 88.2555C892.078 -16.968 800.029 1.28905 800.029 1.28905C800.029 1.28905 682.781 1.28905 645.591 71.2621C608.402 141.235 603.237 212.708 624.414 243.196C645.591 273.684 561.916 356.653 561.916 356.653C561.916 356.653 301.593 71.2621 161.101 108.748C20.6089 146.233 161.101 436.122 161.101 436.122C161.101 436.122 31.9722 468.609 26.2905 542.08C20.6088 615.552 100.152 669.032 100.152 669.032Z" fill="#D9D9D9" fill-opacity="0.41"/>
<rect x="124" y="199" width="832" height="466" rx="16" fill="#FFFDFD"/>
<path d="M1 668L1121 673.119" stroke="black" stroke-width="8"/>
<rect x="124" y="199" width="832" height="64" rx="16" fill="#A91010"/>
<path d="M519 81.5001C528.228 97.4924 522.726 117.948 506.712 127.188C490.698 136.429 470.235 130.956 461.007 114.963C451.779 98.9709 457.281 78.5156 473.295 69.275C489.309 60.0344 509.772 65.5078 519 81.5001Z" fill="#D9D9D9" fill-opacity="0.42"/>
<circle cx="813.5" cy="231.5" r="19.5" fill="white"/>
<circle cx="813.5" cy="231.5" r="19.5" fill="white"/>
<circle cx="813.5" cy="231.5" r="19.5" fill="white"/>
<circle cx="813.5" cy="231.5" r="19.5" fill="white"/>
<circle cx="871.5" cy="229.5" r="19.5" fill="white"/>
<circle cx="871.5" cy="229.5" r="19.5" fill="white"/>
<circle cx="871.5" cy="229.5" r="19.5" fill="white"/>
<circle cx="871.5" cy="229.5" r="19.5" fill="white"/>
<circle cx="929.5" cy="230.5" r="19.5" fill="white"/>
<circle cx="929.5" cy="230.5" r="19.5" fill="white"/>
<circle cx="929.5" cy="230.5" r="19.5" fill="white"/>
<circle cx="929.5" cy="230.5" r="19.5" fill="white"/>
<path d="M446.863 457V419L448.063 415V332.8L458.063 337.2L398.863 416.6L387.463 407.2H489.063V427.8H376.263V408L447.663 313H473.463V457H446.863ZM561.51 459C549.777 459 539.377 455.867 530.31 449.6C521.243 443.2 514.11 434.4 508.91 423.2C503.843 411.867 501.31 398.933 501.31 384.4C501.31 369.867 503.843 357.133 508.91 346.2C513.977 335.133 521.043 326.533 530.11 320.4C539.31 314.133 549.777 311 561.51 311C573.377 311 583.843 314.133 592.91 320.4C601.977 326.533 609.043 335.133 614.11 346.2C619.31 357.133 621.91 369.867 621.91 384.4C621.91 399.067 619.31 412 614.11 423.2C609.043 434.4 601.977 443.2 592.91 449.6C583.843 455.867 573.377 459 561.51 459ZM561.51 437.2C568.843 437.2 574.91 434.867 579.71 430.2C584.51 425.533 588.11 419.2 590.51 411.2C593.043 403.2 594.31 394.2 594.31 384.2C594.31 374.2 593.11 365.333 590.71 357.6C588.31 349.867 584.643 343.8 579.71 339.4C574.91 335 568.843 332.8 561.51 332.8C554.31 332.8 548.243 335.067 543.31 339.6C538.51 344 534.91 350.067 532.51 357.8C530.11 365.533 528.91 374.333 528.91 384.2C528.91 394.333 530.11 403.4 532.51 411.4C534.91 419.4 538.577 425.733 543.51 430.4C548.443 434.933 554.443 437.2 561.51 437.2ZM704.09 457V419L705.29 415V332.8L715.29 337.2L656.09 416.6L644.69 407.2H746.29V427.8H633.49V408L704.89 313H730.69V457H704.09Z" fill="black"/>
<rect x="132" y="531" width="170" height="30" fill="#A91010"/>
<path d="M273.634 524.389L245.134 565.389M302.134 524.389L273.634 565.389" stroke="white" stroke-width="12"/>
<path d="M216.634 524.389L188.134 565.389M245.134 524.389L216.634 565.389" stroke="white" stroke-width="12"/>
<path d="M159.634 525.389L131.134 566.389M188.134 525.389L159.634 566.389" stroke="white" stroke-width="12"/>
<rect x="132" y="576" width="170" height="30" fill="#A91010"/>
<path d="M273.634 569.389L245.134 610.389M302.134 569.389L273.634 610.389" stroke="white" stroke-width="12"/>
<path d="M216.634 569.389L188.134 610.389M245.134 569.389L216.634 610.389" stroke="white" stroke-width="12"/>
<path d="M159.634 570.389L131.134 611.389M188.134 570.389L159.634 611.389" stroke="white" stroke-width="12"/>
<rect x="268" y="606" width="12" height="59" fill="black"/>
<rect x="268" y="561" width="12" height="15" fill="black"/>
<rect x="154" y="561" width="12" height="15" fill="black"/>
<rect x="154" y="606" width="12" height="59" fill="black"/>
<rect x="154" y="606" width="12" height="59" fill="black"/>
<rect x="154" y="606" width="12" height="59" fill="black"/>
<circle cx="160" cy="511" r="19" fill="#020000"/>
<circle cx="274" cy="511" r="19" fill="#020000"/>
<circle cx="160" cy="511" r="16" fill="#701819"/>
<circle cx="274" cy="511" r="16" fill="#701819"/>
<path d="M401.147 528V504.96H412.091C413.798 504.96 415.259 505.259 416.475 505.856C417.712 506.453 418.662 507.285 419.323 508.352C420.006 509.419 420.347 510.667 420.347 512.096C420.347 513.525 420.006 514.784 419.323 515.872C418.64 516.96 417.68 517.813 416.443 518.432C415.227 519.029 413.776 519.328 412.091 519.328H405.051V515.552H411.835C412.966 515.552 413.84 515.243 414.459 514.624C415.099 513.984 415.419 513.152 415.419 512.128C415.419 511.104 415.099 510.283 414.459 509.664C413.84 509.045 412.966 508.736 411.835 508.736H406.075V528H401.147ZM432.176 528C432.048 527.531 431.952 527.029 431.888 526.496C431.846 525.963 431.824 525.344 431.824 524.64H431.696V516.928C431.696 516.267 431.472 515.755 431.024 515.392C430.598 515.008 429.958 514.816 429.104 514.816C428.294 514.816 427.643 514.955 427.152 515.232C426.683 515.509 426.374 515.915 426.224 516.448H421.648C421.862 514.976 422.619 513.76 423.92 512.8C425.222 511.84 427.003 511.36 429.264 511.36C431.611 511.36 433.403 511.883 434.64 512.928C435.878 513.973 436.496 515.477 436.496 517.44V524.64C436.496 525.173 436.528 525.717 436.592 526.272C436.678 526.805 436.806 527.381 436.976 528H432.176ZM426.48 528.32C424.859 528.32 423.568 527.915 422.608 527.104C421.648 526.272 421.168 525.173 421.168 523.808C421.168 522.293 421.734 521.077 422.864 520.16C424.016 519.221 425.616 518.613 427.664 518.336L432.432 517.664V520.448L428.464 521.056C427.611 521.184 426.982 521.419 426.576 521.76C426.171 522.101 425.968 522.571 425.968 523.168C425.968 523.701 426.16 524.107 426.544 524.384C426.928 524.661 427.44 524.8 428.08 524.8C429.083 524.8 429.936 524.533 430.64 524C431.344 523.445 431.696 522.805 431.696 522.08L432.144 524.64C431.675 525.856 430.96 526.773 430 527.392C429.04 528.011 427.867 528.32 426.48 528.32ZM447.331 534.88C445.069 534.88 443.224 534.4 441.795 533.44C440.387 532.48 439.555 531.179 439.299 529.536H443.843C444.013 529.941 444.376 530.251 444.931 530.464C445.507 530.677 446.232 530.784 447.107 530.784C448.557 530.784 449.613 530.507 450.275 529.952C450.936 529.397 451.267 528.533 451.267 527.36V523.808L451.523 523.872C451.309 525.067 450.691 526.016 449.667 526.72C448.643 527.403 447.373 527.744 445.859 527.744C444.408 527.744 443.139 527.413 442.051 526.752C440.984 526.069 440.152 525.12 439.555 523.904C438.957 522.688 438.659 521.259 438.659 519.616C438.659 517.952 438.968 516.501 439.587 515.264C440.205 514.027 441.069 513.067 442.179 512.384C443.309 511.701 444.621 511.36 446.115 511.36C447.651 511.36 448.899 511.723 449.859 512.448C450.84 513.173 451.416 514.165 451.587 515.424L451.363 515.456V511.68H456.067V527.296C456.067 529.643 455.288 531.488 453.731 532.832C452.173 534.197 450.04 534.88 447.331 534.88ZM447.523 524.064C448.653 524.064 449.571 523.68 450.275 522.912C450.979 522.123 451.331 521.003 451.331 519.552C451.331 518.101 450.968 516.992 450.243 516.224C449.539 515.435 448.611 515.04 447.459 515.04C446.349 515.04 445.432 515.435 444.707 516.224C444.003 517.013 443.651 518.133 443.651 519.584C443.651 521.035 444.003 522.144 444.707 522.912C445.432 523.68 446.371 524.064 447.523 524.064ZM459.904 528V511.68H464.704V528H459.904ZM459.744 509.504V504.32H464.864V509.504H459.744ZM468.529 528V511.68H473.233V515.52H473.329V528H468.529ZM479.889 528V517.888C479.889 516.992 479.655 516.32 479.185 515.872C478.737 515.424 478.076 515.2 477.201 515.2C476.455 515.2 475.783 515.371 475.185 515.712C474.609 516.053 474.151 516.523 473.809 517.12C473.489 517.717 473.329 518.421 473.329 519.232L472.913 515.296C473.447 514.101 474.225 513.152 475.249 512.448C476.295 511.723 477.575 511.36 479.089 511.36C480.903 511.36 482.289 511.872 483.249 512.896C484.209 513.899 484.689 515.253 484.689 516.96V528H479.889ZM498.208 528C498.08 527.531 497.984 527.029 497.92 526.496C497.877 525.963 497.856 525.344 497.856 524.64H497.728V516.928C497.728 516.267 497.504 515.755 497.056 515.392C496.629 515.008 495.989 514.816 495.136 514.816C494.325 514.816 493.674 514.955 493.184 515.232C492.714 515.509 492.405 515.915 492.256 516.448H487.68C487.893 514.976 488.65 513.76 489.952 512.8C491.253 511.84 493.034 511.36 495.296 511.36C497.642 511.36 499.434 511.883 500.672 512.928C501.909 513.973 502.528 515.477 502.528 517.44V524.64C502.528 525.173 502.56 525.717 502.624 526.272C502.709 526.805 502.837 527.381 503.008 528H498.208ZM492.512 528.32C490.89 528.32 489.6 527.915 488.64 527.104C487.68 526.272 487.2 525.173 487.2 523.808C487.2 522.293 487.765 521.077 488.896 520.16C490.048 519.221 491.648 518.613 493.696 518.336L498.464 517.664V520.448L494.496 521.056C493.642 521.184 493.013 521.419 492.608 521.76C492.202 522.101 492 522.571 492 523.168C492 523.701 492.192 524.107 492.576 524.384C492.96 524.661 493.472 524.8 494.112 524.8C495.114 524.8 495.968 524.533 496.672 524C497.376 523.445 497.728 522.805 497.728 522.08L498.176 524.64C497.706 525.856 496.992 526.773 496.032 527.392C495.072 528.011 493.898 528.32 492.512 528.32ZM512.311 528V511.68H517.015V515.52H517.111V528H512.311ZM523.671 528V517.888C523.671 516.992 523.436 516.32 522.967 515.872C522.519 515.424 521.857 515.2 520.983 515.2C520.236 515.2 519.564 515.371 518.967 515.712C518.391 516.053 517.932 516.523 517.591 517.12C517.271 517.717 517.111 518.421 517.111 519.232L516.695 515.296C517.228 514.101 518.007 513.152 519.031 512.448C520.076 511.723 521.356 511.36 522.871 511.36C524.684 511.36 526.071 511.872 527.031 512.896C527.991 513.899 528.471 515.253 528.471 516.96V528H523.671ZM539.867 528.32C538.075 528.32 536.496 527.968 535.131 527.264C533.787 526.539 532.731 525.536 531.963 524.256C531.216 522.955 530.843 521.461 530.843 519.776C530.843 518.091 531.216 516.619 531.963 515.36C532.731 514.101 533.787 513.12 535.131 512.416C536.496 511.712 538.075 511.36 539.867 511.36C541.68 511.36 543.259 511.712 544.603 512.416C545.968 513.12 547.024 514.101 547.771 515.36C548.518 516.619 548.891 518.091 548.891 519.776C548.891 521.461 548.507 522.955 547.739 524.256C546.992 525.536 545.936 526.539 544.571 527.264C543.227 527.968 541.659 528.32 539.867 528.32ZM539.867 524.544C540.614 524.544 541.286 524.352 541.883 523.968C542.502 523.584 542.992 523.04 543.355 522.336C543.718 521.611 543.899 520.747 543.899 519.744C543.899 518.272 543.504 517.141 542.715 516.352C541.947 515.541 540.998 515.136 539.867 515.136C538.736 515.136 537.776 515.541 536.987 516.352C536.219 517.163 535.835 518.293 535.835 519.744C535.835 520.747 536.016 521.611 536.379 522.336C536.742 523.04 537.222 523.584 537.819 523.968C538.438 524.352 539.12 524.544 539.867 524.544ZM569.081 528V524.384L569.401 524.448C569.188 525.621 568.548 526.56 567.481 527.264C566.436 527.968 565.177 528.32 563.705 528.32C562.212 528.32 560.911 527.979 559.801 527.296C558.713 526.592 557.871 525.611 557.273 524.352C556.676 523.093 556.377 521.611 556.377 519.904C556.377 518.176 556.687 516.672 557.305 515.392C557.924 514.112 558.788 513.12 559.897 512.416C561.028 511.712 562.34 511.36 563.833 511.36C565.391 511.36 566.649 511.723 567.609 512.448C568.591 513.173 569.167 514.165 569.337 515.424L568.985 515.456V504.96H573.785V528H569.081ZM565.241 524.48C566.372 524.48 567.289 524.085 567.993 523.296C568.697 522.485 569.049 521.333 569.049 519.84C569.049 518.347 568.687 517.205 567.961 516.416C567.257 515.605 566.329 515.2 565.177 515.2C564.068 515.2 563.151 515.605 562.425 516.416C561.721 517.227 561.369 518.379 561.369 519.872C561.369 521.365 561.721 522.507 562.425 523.296C563.151 524.085 564.089 524.48 565.241 524.48ZM577.623 528V511.68H582.423V528H577.623ZM577.463 509.504V504.32H582.583V509.504H577.463ZM592.746 528.32C590.357 528.32 588.458 527.84 587.05 526.88C585.642 525.92 584.874 524.597 584.746 522.912H589.034C589.141 523.637 589.504 524.192 590.122 524.576C590.762 524.939 591.637 525.12 592.746 525.12C593.749 525.12 594.474 524.981 594.922 524.704C595.392 524.405 595.626 523.989 595.626 523.456C595.626 523.051 595.488 522.741 595.21 522.528C594.954 522.293 594.474 522.101 593.77 521.952L591.146 521.408C589.205 521.003 587.776 520.395 586.858 519.584C585.941 518.752 585.482 517.685 585.482 516.384C585.482 514.805 586.09 513.579 587.306 512.704C588.522 511.808 590.218 511.36 592.394 511.36C594.549 511.36 596.266 511.797 597.546 512.672C598.826 513.525 599.53 514.72 599.658 516.256H595.37C595.285 515.701 594.986 515.285 594.474 515.008C593.962 514.709 593.237 514.56 592.298 514.56C591.445 514.56 590.805 514.688 590.378 514.944C589.973 515.179 589.77 515.52 589.77 515.968C589.77 516.352 589.941 516.661 590.282 516.896C590.624 517.109 591.189 517.301 591.978 517.472L594.922 518.08C596.565 518.421 597.802 519.061 598.634 520C599.488 520.917 599.914 522.005 599.914 523.264C599.914 524.864 599.285 526.112 598.026 527.008C596.789 527.883 595.029 528.32 592.746 528.32ZM612.231 528.32C610.674 528.32 609.426 527.957 608.487 527.232C607.549 526.507 606.994 525.515 606.823 524.256L607.079 524.224V534.56H602.279V511.68H606.983V515.296L606.695 515.232C606.93 514.037 607.57 513.099 608.615 512.416C609.661 511.712 610.951 511.36 612.487 511.36C613.959 511.36 615.229 511.712 616.295 512.416C617.383 513.099 618.215 514.069 618.791 515.328C619.389 516.587 619.687 518.069 619.687 519.776C619.687 521.504 619.378 523.008 618.759 524.288C618.141 525.568 617.277 526.56 616.167 527.264C615.058 527.968 613.746 528.32 612.231 528.32ZM610.887 524.48C612.018 524.48 612.935 524.075 613.639 523.264C614.343 522.453 614.695 521.301 614.695 519.808C614.695 518.315 614.333 517.173 613.607 516.384C612.903 515.595 611.975 515.2 610.823 515.2C609.714 515.2 608.797 515.605 608.071 516.416C607.367 517.205 607.015 518.347 607.015 519.84C607.015 521.333 607.367 522.485 608.071 523.296C608.797 524.085 609.735 524.48 610.887 524.48ZM630.43 528.32C628.638 528.32 627.059 527.968 625.694 527.264C624.35 526.539 623.294 525.536 622.526 524.256C621.779 522.955 621.406 521.461 621.406 519.776C621.406 518.091 621.779 516.619 622.526 515.36C623.294 514.101 624.35 513.12 625.694 512.416C627.059 511.712 628.638 511.36 630.43 511.36C632.243 511.36 633.822 511.712 635.166 512.416C636.531 513.12 637.587 514.101 638.334 515.36C639.08 516.619 639.454 518.091 639.454 519.776C639.454 521.461 639.07 522.955 638.302 524.256C637.555 525.536 636.499 526.539 635.134 527.264C633.79 527.968 632.222 528.32 630.43 528.32ZM630.43 524.544C631.176 524.544 631.848 524.352 632.446 523.968C633.064 523.584 633.555 523.04 633.918 522.336C634.28 521.611 634.462 520.747 634.462 519.744C634.462 518.272 634.067 517.141 633.278 516.352C632.51 515.541 631.56 515.136 630.43 515.136C629.299 515.136 628.339 515.541 627.55 516.352C626.782 517.163 626.398 518.293 626.398 519.744C626.398 520.747 626.579 521.611 626.942 522.336C627.304 523.04 627.784 523.584 628.382 523.968C629 524.352 629.683 524.544 630.43 524.544ZM641.998 528V511.68H646.702V515.52H646.798V528H641.998ZM653.358 528V517.888C653.358 516.992 653.123 516.32 652.654 515.872C652.206 515.424 651.545 515.2 650.67 515.2C649.923 515.2 649.251 515.371 648.654 515.712C648.078 516.053 647.619 516.523 647.278 517.12C646.958 517.717 646.798 518.421 646.798 519.232L646.382 515.296C646.915 514.101 647.694 513.152 648.718 512.448C649.763 511.723 651.043 511.36 652.558 511.36C654.371 511.36 655.758 511.872 656.718 512.896C657.678 513.899 658.158 515.253 658.158 516.96V528H653.358ZM661.623 528V511.68H666.423V528H661.623ZM661.463 509.504V504.32H666.583V509.504H661.463ZM680.2 528.32C678.643 528.32 677.373 527.957 676.392 527.232C675.432 526.507 674.867 525.515 674.696 524.256L674.952 524.224V528H670.248V504.96H675.048V515.296L674.76 515.232C674.995 514.037 675.613 513.099 676.616 512.416C677.64 511.712 678.92 511.36 680.456 511.36C681.928 511.36 683.197 511.712 684.264 512.416C685.352 513.099 686.184 514.069 686.76 515.328C687.357 516.587 687.656 518.069 687.656 519.776C687.656 521.504 687.347 523.008 686.728 524.288C686.109 525.568 685.245 526.56 684.136 527.264C683.027 527.968 681.715 528.32 680.2 528.32ZM678.856 524.48C679.987 524.48 680.904 524.075 681.608 523.264C682.312 522.453 682.664 521.301 682.664 519.808C682.664 518.315 682.301 517.173 681.576 516.384C680.872 515.595 679.944 515.2 678.792 515.2C677.683 515.2 676.765 515.605 676.04 516.416C675.336 517.205 674.984 518.347 674.984 519.84C674.984 521.333 675.336 522.485 676.04 523.296C676.765 524.085 677.704 524.48 678.856 524.48ZM690.342 528V504.96H695.142V528H690.342ZM706.647 528.32C704.834 528.32 703.255 527.968 701.911 527.264C700.567 526.539 699.522 525.536 698.775 524.256C698.05 522.976 697.687 521.504 697.687 519.84C697.687 518.155 698.05 516.683 698.775 515.424C699.522 514.144 700.556 513.152 701.879 512.448C703.202 511.723 704.738 511.36 706.487 511.36C708.172 511.36 709.634 511.701 710.871 512.384C712.108 513.067 713.068 514.016 713.751 515.232C714.434 516.448 714.775 517.877 714.775 519.52C714.775 519.861 714.764 520.181 714.743 520.48C714.722 520.757 714.69 521.024 714.647 521.28H700.503V518.112H710.775L709.943 518.688C709.943 517.365 709.623 516.395 708.983 515.776C708.364 515.136 707.511 514.816 706.423 514.816C705.164 514.816 704.183 515.243 703.479 516.096C702.796 516.949 702.455 518.229 702.455 519.936C702.455 521.6 702.796 522.837 703.479 523.648C704.183 524.459 705.228 524.864 706.615 524.864C707.383 524.864 708.044 524.736 708.599 524.48C709.154 524.224 709.57 523.808 709.847 523.232H714.359C713.826 524.811 712.908 526.059 711.607 526.976C710.327 527.872 708.674 528.32 706.647 528.32ZM716.312 533.376V531.04C717.315 530.741 717.965 530.304 718.264 529.728C718.563 529.152 718.712 528.405 718.712 527.488L720.664 528H716.248V522.72H721.528V526.464C721.528 528.149 721.133 529.6 720.344 530.816C719.555 532.032 718.211 532.885 716.312 533.376ZM392.247 567.32C390.69 567.32 389.442 566.957 388.503 566.232C387.564 565.507 387.01 564.515 386.839 563.256L387.095 563.224V573.56H382.295V550.68H386.999V554.296L386.711 554.232C386.946 553.037 387.586 552.099 388.631 551.416C389.676 550.712 390.967 550.36 392.503 550.36C393.975 550.36 395.244 550.712 396.311 551.416C397.399 552.099 398.231 553.069 398.807 554.328C399.404 555.587 399.703 557.069 399.703 558.776C399.703 560.504 399.394 562.008 398.775 563.288C398.156 564.568 397.292 565.56 396.183 566.264C395.074 566.968 393.762 567.32 392.247 567.32ZM390.903 563.48C392.034 563.48 392.951 563.075 393.655 562.264C394.359 561.453 394.711 560.301 394.711 558.808C394.711 557.315 394.348 556.173 393.623 555.384C392.919 554.595 391.991 554.2 390.839 554.2C389.73 554.2 388.812 554.605 388.087 555.416C387.383 556.205 387.031 557.347 387.031 558.84C387.031 560.333 387.383 561.485 388.087 562.296C388.812 563.085 389.751 563.48 390.903 563.48ZM410.445 567.32C408.653 567.32 407.075 566.968 405.709 566.264C404.365 565.539 403.309 564.536 402.541 563.256C401.795 561.955 401.421 560.461 401.421 558.776C401.421 557.091 401.795 555.619 402.541 554.36C403.309 553.101 404.365 552.12 405.709 551.416C407.075 550.712 408.653 550.36 410.445 550.36C412.259 550.36 413.837 550.712 415.181 551.416C416.547 552.12 417.603 553.101 418.349 554.36C419.096 555.619 419.469 557.091 419.469 558.776C419.469 560.461 419.085 561.955 418.317 563.256C417.571 564.536 416.515 565.539 415.149 566.264C413.805 566.968 412.237 567.32 410.445 567.32ZM410.445 563.544C411.192 563.544 411.864 563.352 412.461 562.968C413.08 562.584 413.571 562.04 413.933 561.336C414.296 560.611 414.477 559.747 414.477 558.744C414.477 557.272 414.083 556.141 413.293 555.352C412.525 554.541 411.576 554.136 410.445 554.136C409.315 554.136 408.355 554.541 407.565 555.352C406.797 556.163 406.413 557.293 406.413 558.744C406.413 559.747 406.595 560.611 406.957 561.336C407.32 562.04 407.8 562.584 408.397 562.968C409.016 563.352 409.699 563.544 410.445 563.544ZM422.014 567V550.68H426.718V554.52H426.814V567H422.014ZM426.814 558.488L426.398 554.616C426.782 553.229 427.411 552.173 428.286 551.448C429.16 550.723 430.248 550.36 431.55 550.36C431.955 550.36 432.254 550.403 432.446 550.488V554.968C432.339 554.925 432.19 554.904 431.998 554.904C431.806 554.883 431.571 554.872 431.294 554.872C429.758 554.872 428.627 555.149 427.902 555.704C427.176 556.237 426.814 557.165 426.814 558.488ZM442.106 567V549.592C442.106 547.629 442.639 546.147 443.706 545.144C444.772 544.141 446.351 543.64 448.442 543.64C448.89 543.64 449.274 543.661 449.594 543.704C449.935 543.747 450.266 543.821 450.586 543.928V547.608C450.436 547.544 450.255 547.501 450.042 547.48C449.828 547.437 449.572 547.416 449.274 547.416C448.463 547.416 447.866 547.608 447.482 547.992C447.098 548.376 446.906 548.931 446.906 549.656V567H442.106ZM439.386 554.328V550.68H450.234V554.328H439.386ZM462.223 567C462.095 566.531 461.999 566.029 461.935 565.496C461.893 564.963 461.871 564.344 461.871 563.64H461.743V555.928C461.743 555.267 461.519 554.755 461.071 554.392C460.645 554.008 460.005 553.816 459.151 553.816C458.341 553.816 457.69 553.955 457.199 554.232C456.73 554.509 456.421 554.915 456.271 555.448H451.695C451.909 553.976 452.666 552.76 453.967 551.8C455.269 550.84 457.05 550.36 459.311 550.36C461.658 550.36 463.45 550.883 464.687 551.928C465.925 552.973 466.543 554.477 466.543 556.44V563.64C466.543 564.173 466.575 564.717 466.639 565.272C466.725 565.805 466.853 566.381 467.023 567H462.223ZM456.527 567.32C454.906 567.32 453.615 566.915 452.655 566.104C451.695 565.272 451.215 564.173 451.215 562.808C451.215 561.293 451.781 560.077 452.911 559.16C454.063 558.221 455.663 557.613 457.711 557.336L462.479 556.664V559.448L458.511 560.056C457.658 560.184 457.029 560.419 456.623 560.76C456.218 561.101 456.015 561.571 456.015 562.168C456.015 562.701 456.207 563.107 456.591 563.384C456.975 563.661 457.487 563.8 458.127 563.8C459.13 563.8 459.983 563.533 460.687 563C461.391 562.445 461.743 561.805 461.743 561.08L462.191 563.64C461.722 564.856 461.007 565.773 460.047 566.392C459.087 567.011 457.914 567.32 456.527 567.32ZM473.618 567L467.186 550.68H472.338L477.362 565.912H474.674L479.666 550.68H484.69L478.258 567H473.618ZM493.789 567.32C491.997 567.32 490.418 566.968 489.053 566.264C487.709 565.539 486.653 564.536 485.885 563.256C485.138 561.955 484.765 560.461 484.765 558.776C484.765 557.091 485.138 555.619 485.885 554.36C486.653 553.101 487.709 552.12 489.053 551.416C490.418 550.712 491.997 550.36 493.789 550.36C495.602 550.36 497.181 550.712 498.525 551.416C499.89 552.12 500.946 553.101 501.693 554.36C502.44 555.619 502.813 557.091 502.813 558.776C502.813 560.461 502.429 561.955 501.661 563.256C500.914 564.536 499.858 565.539 498.493 566.264C497.149 566.968 495.581 567.32 493.789 567.32ZM493.789 563.544C494.536 563.544 495.208 563.352 495.805 562.968C496.424 562.584 496.914 562.04 497.277 561.336C497.64 560.611 497.821 559.747 497.821 558.744C497.821 557.272 497.426 556.141 496.637 555.352C495.869 554.541 494.92 554.136 493.789 554.136C492.658 554.136 491.698 554.541 490.909 555.352C490.141 556.163 489.757 557.293 489.757 558.744C489.757 559.747 489.938 560.611 490.301 561.336C490.664 562.04 491.144 562.584 491.741 562.968C492.36 563.352 493.042 563.544 493.789 563.544ZM505.358 567V550.68H510.062V554.52H510.158V567H505.358ZM510.158 558.488L509.742 554.616C510.126 553.229 510.755 552.173 511.63 551.448C512.504 550.723 513.592 550.36 514.894 550.36C515.299 550.36 515.598 550.403 515.79 550.488V554.968C515.683 554.925 515.534 554.904 515.342 554.904C515.15 554.883 514.915 554.872 514.638 554.872C513.102 554.872 511.971 555.149 511.246 555.704C510.52 556.237 510.158 557.165 510.158 558.488ZM528.649 567L522.217 550.68H527.369L532.393 565.912H529.705L534.697 550.68H539.721L533.289 567H528.649ZM546.669 567.32C545.517 567.32 544.525 567.075 543.693 566.584C542.882 566.072 542.263 565.4 541.837 564.568C541.41 563.715 541.197 562.765 541.197 561.72V550.68H545.997V560.792C545.997 561.688 546.221 562.36 546.669 562.808C547.117 563.256 547.746 563.48 548.557 563.48C549.282 563.48 549.922 563.309 550.477 562.968C551.031 562.627 551.469 562.157 551.789 561.56C552.13 560.941 552.301 560.237 552.301 559.448L552.717 563.384C552.183 564.557 551.405 565.507 550.381 566.232C549.357 566.957 548.119 567.32 546.669 567.32ZM552.397 567V563.16H552.301V550.68H557.101V567H552.397ZM568.538 567.32C566.724 567.32 565.146 566.968 563.802 566.264C562.458 565.539 561.412 564.536 560.666 563.256C559.94 561.976 559.578 560.504 559.578 558.84C559.578 557.155 559.94 555.683 560.666 554.424C561.412 553.144 562.447 552.152 563.77 551.448C565.092 550.723 566.628 550.36 568.378 550.36C570.063 550.36 571.524 550.701 572.762 551.384C573.999 552.067 574.959 553.016 575.642 554.232C576.324 555.448 576.666 556.877 576.666 558.52C576.666 558.861 576.655 559.181 576.634 559.48C576.612 559.757 576.58 560.024 576.538 560.28H562.394V557.112H572.666L571.834 557.688C571.834 556.365 571.514 555.395 570.874 554.776C570.255 554.136 569.402 553.816 568.314 553.816C567.055 553.816 566.074 554.243 565.37 555.096C564.687 555.949 564.346 557.229 564.346 558.936C564.346 560.6 564.687 561.837 565.37 562.648C566.074 563.459 567.119 563.864 568.506 563.864C569.274 563.864 569.935 563.736 570.49 563.48C571.044 563.224 571.46 562.808 571.738 562.232H576.25C575.716 563.811 574.799 565.059 573.498 565.976C572.218 566.872 570.564 567.32 568.538 567.32ZM579.233 567V543.96H584.033V567H579.233ZM592.306 567L585.873 550.68H591.026L596.05 565.912H593.362L598.354 550.68H603.378L596.946 567H592.306ZM612.413 567.32C610.599 567.32 609.021 566.968 607.677 566.264C606.333 565.539 605.287 564.536 604.541 563.256C603.815 561.976 603.453 560.504 603.453 558.84C603.453 557.155 603.815 555.683 604.541 554.424C605.287 553.144 606.322 552.152 607.645 551.448C608.967 550.723 610.503 550.36 612.253 550.36C613.938 550.36 615.399 550.701 616.637 551.384C617.874 552.067 618.834 553.016 619.517 554.232C620.199 555.448 620.541 556.877 620.541 558.52C620.541 558.861 620.53 559.181 620.509 559.48C620.487 559.757 620.455 560.024 620.413 560.28H606.269V557.112H616.541L615.709 557.688C615.709 556.365 615.389 555.395 614.749 554.776C614.13 554.136 613.277 553.816 612.189 553.816C610.93 553.816 609.949 554.243 609.245 555.096C608.562 555.949 608.221 557.229 608.221 558.936C608.221 560.6 608.562 561.837 609.245 562.648C609.949 563.459 610.994 563.864 612.381 563.864C613.149 563.864 613.81 563.736 614.365 563.48C614.919 563.224 615.335 562.808 615.613 562.232H620.125C619.591 563.811 618.674 565.059 617.373 565.976C616.093 566.872 614.439 567.32 612.413 567.32ZM639.473 567C639.345 566.531 639.249 566.029 639.185 565.496C639.143 564.963 639.121 564.344 639.121 563.64H638.993V555.928C638.993 555.267 638.769 554.755 638.321 554.392C637.895 554.008 637.255 553.816 636.401 553.816C635.591 553.816 634.94 553.955 634.449 554.232C633.98 554.509 633.671 554.915 633.521 555.448H628.945C629.159 553.976 629.916 552.76 631.217 551.8C632.519 550.84 634.3 550.36 636.561 550.36C638.908 550.36 640.7 550.883 641.937 551.928C643.175 552.973 643.793 554.477 643.793 556.44V563.64C643.793 564.173 643.825 564.717 643.889 565.272C643.975 565.805 644.103 566.381 644.273 567H639.473ZM633.777 567.32C632.156 567.32 630.865 566.915 629.905 566.104C628.945 565.272 628.465 564.173 628.465 562.808C628.465 561.293 629.031 560.077 630.161 559.16C631.313 558.221 632.913 557.613 634.961 557.336L639.729 556.664V559.448L635.761 560.056C634.908 560.184 634.279 560.419 633.873 560.76C633.468 561.101 633.265 561.571 633.265 562.168C633.265 562.701 633.457 563.107 633.841 563.384C634.225 563.661 634.737 563.8 635.377 563.8C636.38 563.8 637.233 563.533 637.937 563C638.641 562.445 638.993 561.805 638.993 561.08L639.441 563.64C638.972 564.856 638.257 565.773 637.297 566.392C636.337 567.011 635.164 567.32 633.777 567.32ZM647.483 567V543.96H652.283V567H647.483ZM662.201 567V550.68H667.001V567H662.201ZM662.041 548.504V543.32H667.161V548.504H662.041ZM670.826 567V550.68H675.53V554.52H675.626V567H670.826ZM682.186 567V556.888C682.186 555.992 681.952 555.32 681.482 554.872C681.034 554.424 680.373 554.2 679.498 554.2C678.752 554.2 678.08 554.371 677.482 554.712C676.906 555.053 676.448 555.523 676.106 556.12C675.786 556.717 675.626 557.421 675.626 558.232L675.21 554.296C675.744 553.101 676.522 552.152 677.546 551.448C678.592 550.723 679.872 550.36 681.386 550.36C683.2 550.36 684.586 550.872 685.546 551.896C686.506 552.899 686.986 554.253 686.986 555.96V567H682.186ZM690.451 567V550.68H695.251V567H690.451ZM690.291 548.504V543.32H695.411V548.504H690.291ZM706.406 567.32C704.699 567.32 703.195 566.957 701.894 566.232C700.592 565.507 699.568 564.504 698.822 563.224C698.096 561.944 697.734 560.483 697.734 558.84C697.734 557.197 698.096 555.736 698.822 554.456C699.568 553.176 700.592 552.173 701.894 551.448C703.195 550.723 704.699 550.36 706.406 550.36C707.835 550.36 709.115 550.627 710.246 551.16C711.398 551.672 712.336 552.387 713.062 553.304C713.808 554.221 714.288 555.299 714.502 556.536H709.862C709.627 555.747 709.2 555.149 708.582 554.744C707.984 554.339 707.28 554.136 706.47 554.136C705.702 554.136 705.03 554.328 704.454 554.712C703.899 555.096 703.472 555.64 703.174 556.344C702.875 557.048 702.726 557.88 702.726 558.84C702.726 559.8 702.875 560.632 703.174 561.336C703.472 562.04 703.899 562.584 704.454 562.968C705.03 563.352 705.702 563.544 706.47 563.544C707.28 563.544 707.984 563.341 708.582 562.936C709.2 562.531 709.627 561.933 709.862 561.144H714.502C714.288 562.381 713.808 563.459 713.062 564.376C712.336 565.293 711.398 566.019 710.246 566.552C709.115 567.064 707.835 567.32 706.406 567.32ZM716.67 567V550.68H721.47V567H716.67ZM716.51 548.504V543.32H721.63V548.504H716.51ZM732.977 567.32C731.185 567.32 729.606 566.968 728.241 566.264C726.897 565.539 725.841 564.536 725.073 563.256C724.326 561.955 723.953 560.461 723.953 558.776C723.953 557.091 724.326 555.619 725.073 554.36C725.841 553.101 726.897 552.12 728.241 551.416C729.606 550.712 731.185 550.36 732.977 550.36C734.79 550.36 736.369 550.712 737.713 551.416C739.078 552.12 740.134 553.101 740.881 554.36C741.627 555.619 742.001 557.091 742.001 558.776C742.001 560.461 741.617 561.955 740.849 563.256C740.102 564.536 739.046 565.539 737.681 566.264C736.337 566.968 734.769 567.32 732.977 567.32ZM732.977 563.544C733.723 563.544 734.395 563.352 734.993 562.968C735.611 562.584 736.102 562.04 736.465 561.336C736.827 560.611 737.009 559.747 737.009 558.744C737.009 557.272 736.614 556.141 735.825 555.352C735.057 554.541 734.107 554.136 732.977 554.136C731.846 554.136 730.886 554.541 730.097 555.352C729.329 556.163 728.945 557.293 728.945 558.744C728.945 559.747 729.126 560.611 729.489 561.336C729.851 562.04 730.331 562.584 730.929 562.968C731.547 563.352 732.23 563.544 732.977 563.544Z" fill="black"/>
<rect x="893" y="307" width="160" height="52" rx="12" fill="#979696"/>
<path d="M936.428 343V319.96H941.356V343H936.428ZM938.732 343V339.224H953.58V343H938.732ZM938.732 333.08V329.368H952.46V333.08H938.732ZM938.732 323.736V319.96H953.196V323.736H938.732ZM956.779 343V326.68H961.483V330.52H961.579V343H956.779ZM961.579 334.488L961.163 330.616C961.547 329.229 962.177 328.173 963.051 327.448C963.926 326.723 965.014 326.36 966.315 326.36C966.721 326.36 967.019 326.403 967.211 326.488V330.968C967.105 330.925 966.955 330.904 966.763 330.904C966.571 330.883 966.337 330.872 966.059 330.872C964.523 330.872 963.393 331.149 962.667 331.704C961.942 332.237 961.579 333.165 961.579 334.488ZM969.529 343V326.68H974.233V330.52H974.329V343H969.529ZM974.329 334.488L973.913 330.616C974.297 329.229 974.927 328.173 975.801 327.448C976.676 326.723 977.764 326.36 979.065 326.36C979.471 326.36 979.769 326.403 979.961 326.488V330.968C979.855 330.925 979.705 330.904 979.513 330.904C979.321 330.883 979.087 330.872 978.809 330.872C977.273 330.872 976.143 331.149 975.417 331.704C974.692 332.237 974.329 333.165 974.329 334.488ZM989.773 343.32C987.981 343.32 986.403 342.968 985.037 342.264C983.693 341.539 982.637 340.536 981.869 339.256C981.123 337.955 980.749 336.461 980.749 334.776C980.749 333.091 981.123 331.619 981.869 330.36C982.637 329.101 983.693 328.12 985.037 327.416C986.403 326.712 987.981 326.36 989.773 326.36C991.587 326.36 993.165 326.712 994.509 327.416C995.875 328.12 996.931 329.101 997.677 330.36C998.424 331.619 998.797 333.091 998.797 334.776C998.797 336.461 998.413 337.955 997.645 339.256C996.899 340.536 995.843 341.539 994.477 342.264C993.133 342.968 991.565 343.32 989.773 343.32ZM989.773 339.544C990.52 339.544 991.192 339.352 991.789 338.968C992.408 338.584 992.899 338.04 993.261 337.336C993.624 336.611 993.805 335.747 993.805 334.744C993.805 333.272 993.411 332.141 992.621 331.352C991.853 330.541 990.904 330.136 989.773 330.136C988.643 330.136 987.683 330.541 986.893 331.352C986.125 332.163 985.741 333.293 985.741 334.744C985.741 335.747 985.923 336.611 986.285 337.336C986.648 338.04 987.128 338.584 987.725 338.968C988.344 339.352 989.027 339.544 989.773 339.544ZM1001.34 343V326.68H1006.05V330.52H1006.14V343H1001.34ZM1006.14 334.488L1005.73 330.616C1006.11 329.229 1006.74 328.173 1007.61 327.448C1008.49 326.723 1009.58 326.36 1010.88 326.36C1011.28 326.36 1011.58 326.403 1011.77 326.488V330.968C1011.67 330.925 1011.52 330.904 1011.33 330.904C1011.13 330.883 1010.9 330.872 1010.62 330.872C1009.09 330.872 1007.96 331.149 1007.23 331.704C1006.5 332.237 1006.14 333.165 1006.14 334.488Z" fill="black"/>
<path d="M920.986 514.82C924.892 508.48 934.108 508.48 938.014 514.82L1002.81 620.005C1006.92 626.667 1002.12 635.25 994.3 635.25H864.7C856.875 635.25 852.082 626.667 856.186 620.005L920.986 514.82Z" fill="#020000"/>
<path d="M920.947 534.118C924.839 527.693 934.161 527.693 938.053 534.118L984.822 611.319C988.859 617.983 984.061 626.5 976.269 626.5H882.731C874.939 626.5 870.141 617.983 874.178 611.319L920.947 534.118Z" fill="#A91010"/>
<path d="M925.242 588.82L923.702 556.2H935.322L933.782 588.82H925.242ZM923.772 608V596.45H935.322V608H923.772Z" fill="black"/>
</svg>